{
	"asset":{
		"generator":"Khronos glTF Blender I/O v3.6.27",
		"version":"2.0"
	},
	"scene":0,
	"scenes":[
		{
			"name":"Scene",
			"nodes":[
				0
			]
		}
	],
	"nodes":[
		{
			"mesh":0,
			"name":"cauldron",
			"rotation":[
				0,
				0.21643958985805511,
				0,
				0.9762960076332092
			],
			"scale":[
				0.5,
				0.5,
				0.5
			],
			"translation":[
				0.11814763396978378,
				0,
				0.31052282452583313
			]
		}
	],
	"materials":[
		{
			"doubleSided":true,
			"name":"Metal",
			"normalTexture":{
				"index":0
			},
			"pbrMetallicRoughness":{
				"baseColorTexture":{
					"index":1
				},
				"metallicRoughnessTexture":{
					"index":2
				}
			}
		}
	],
	"meshes":[
		{
			"name":"Circle",
			"primitives":[
				{
					"attributes":{
						"POSITION":0,
						"NORMAL":1,
						"TEXCOORD_0":2
					},
					"indices":3,
					"material":0
				}
			]
		}
	],
	"textures":[
		{
			"sampler":0,
			"source":0
		},
		{
			"sampler":0,
			"source":1
		},
		{
			"sampler":0,
			"source":2
		}
	],
	"images":[
        {
            "mimeType":"image/ktx2",
            "name":"normal",
            "uri":"../textures/normal.ktx2"
        },
        {
            "mimeType":"image/ktx2",
            "name":"base_color",
            "uri":"base_color.ktx2"
        },
        {
            "mimeType":"image/ktx2",
            "name":"metalness-roughness",
            "uri":"../metalness-roughness.ktx2"
        }
    ],
	"accessors":[
		{
			"bufferView":0,
			"componentType":5126,
			"count":3494,
			"max":[
				1.4149760007858276,
				1.931984782218933,
				1.0378222465515137
			],
			"min":[
				-1.4149760007858276,
				0,
				-2.49299955368042
			],
			"type":"VEC3"
		},
		{
			"bufferView":1,
			"componentType":5126,
			"count":3494,
			"type":"VEC3"
		},
		{
			"bufferView":2,
			"componentType":5126,
			"count":3494,
			"type":"VEC2"
		},
		{
			"bufferView":3,
			"componentType":5123,
			"count":6180,
			"type":"SCALAR"
		}
	],
	"bufferViews":[
		{
			"buffer":0,
			"byteLength":41928,
			"byteOffset":0,
			"target":34962
		},
		{
			"buffer":0,
			"byteLength":41928,
			"byteOffset":41928,
			"target":34962
		},
		{
			"buffer":0,
			"byteLength":27952,
			"byteOffset":83856,
			"target":34962
		},
		{
			"buffer":0,
			"byteLength":12360,
			"byteOffset":111808,
			"target":34963
		}
	],
	"samplers":[
		{
			"magFilter":9729,
			"minFilter":9987
		}
	],
	"buffers":[
		{
			"byteLength":124168,
			"uri":"cauldron.bin"
		}
	]
}
